HIERARCHY
ROOT Hips
{
    OFFSET 0.000000 0.000000 0.000000
    CHANNELS 6 Xposition Yposition Zposition Zrotation Xrotation Yrotation
    JOINT Spine
    {
        OFFSET -0.000000 7.236184 0.000000
        CHANNELS 3 Zrotation Xrotation Yrotation
        JOINT Spine1
        {
            OFFSET -0.000000 20.420147 0.000000
            CHANNELS 3 Zrotation Xrotation Yrotation
            JOINT Neck
            {
                OFFSET -0.000000 20.336288 1.848754
                CHANNELS 3 Zrotation Xrotation Yrotation
                JOINT Head
                {
                    OFFSET -0.000000 12.354461 -1.764923
                    CHANNELS 3 Zrotation Xrotation Yrotation
                    End Site
                    {
                        OFFSET -0.000000 22.061537 0.000000
                    }
                }
            }
            JOINT LeftShoulder
            {
                OFFSET 3.573296 18.396038 -0.314103
                CHANNELS 3 Zrotation Xrotation Yrotation
                JOINT LeftArm
                {
                    OFFSET 10.880760 0.000000 0.000000
                    CHANNELS 3 Zrotation Xrotation Yrotation
                    JOINT LeftForeArm
                    {
                        OFFSET 27.185530 0.000000 0.000000
                        CHANNELS 3 Zrotation Xrotation Yrotation
                        JOINT LeftHand
                        {
                            OFFSET 27.825975 0.000000 0.000000
                            CHANNELS 3 Zrotation Xrotation Yrotation
                            End Site
                            {
                                OFFSET 13.236923 0.000000 0.000000
                            }
                        }
                    }
                }
            }
            JOINT RightShoulder
            {
                OFFSET -3.474926 18.396038 -0.314103
                CHANNELS 3 Zrotation Xrotation Yrotation
                JOINT RightArm
                {
                    OFFSET -10.880760 0.000000 0.000000
                    CHANNELS 3 Zrotation Xrotation Yrotation
                    JOINT RightForeArm
                    {
                        OFFSET -27.185530 0.000000 0.000000
                        CHANNELS 3 Zrotation Xrotation Yrotation
                        JOINT RightHand
                        {
                            OFFSET -27.825975 0.000000 0.000000
                            CHANNELS 3 Zrotation Xrotation Yrotation
                            End Site
                            {
                                OFFSET -13.236923 0.000000 0.000000
                            }
                        }
                    }
                }
            }
        }
    }
    JOINT LeftUpLeg
    {
        OFFSET 8.824615 0.000000 0.000000
        CHANNELS 3 Zrotation Xrotation Yrotation
        JOINT LeftLeg
        {
            OFFSET -0.000000 -35.111282 0.000000
            CHANNELS 3 Zrotation Xrotation Yrotation
            JOINT LeftFoot
            {
                OFFSET -0.000000 -42.324711 0.000000
                CHANNELS 3 Zrotation Xrotation Yrotation
                JOINT LeftToeBase
                {
                    OFFSET -0.000000 -5.735999 13.236923
                    CHANNELS 3 Zrotation Xrotation Yrotation
                    End Site
                    {
                        OFFSET -0.000000 0.000000 3.529846
                    }
                }
            }
        }
    }
    JOINT RightUpLeg
    {
        OFFSET -8.824615 0.000000 0.000000
        CHANNELS 3 Zrotation Xrotation Yrotation
        JOINT RightLeg
        {
            OFFSET -0.000000 -35.111282 0.000000
            CHANNELS 3 Zrotation Xrotation Yrotation
            JOINT RightFoot
            {
                OFFSET -0.000000 -42.324711 0.000000
                CHANNELS 3 Zrotation Xrotation Yrotation
                JOINT RightToeBase
                {
                    OFFSET -0.000000 -5.735999 13.236923
                    CHANNELS 3 Zrotation Xrotation Yrotation
                    End Site
                    {
                        OFFSET -0.000000 0.000000 3.529846
                    }
                }
            }
        }
    }
}
MOTION
Frames:    7
Frame Time:    0.008333
-2.933275    81.094307    97.614731    0.305873    -2.405573    -177.335922    -1.870380    -14.109579    0.875154    -0.008538    6.785678    1.107147    1.555069    5.430605    -5.016224    9.936944    3.820261    -4.287155    0.888926    18.278753    -2.736439    -43.938984    47.136158    -39.825970    -2.723118    -4.549699    -17.161633    17.942858    -4.339282    3.938533    6.727176    19.695726    -3.772826    37.772625    47.352264    41.969479    0.784002    -6.202708    17.344696    -14.566842    -5.723786    -4.700580    3.274982    -2.198738    -0.297347    -3.152025    7.669867    1.448051    0.261681    -7.492639    -7.644563    -0.267959    0.513870    0.296750    -4.267962    -0.349857    3.584314    3.628580    5.518498    5.461298    -1.252372    -6.687909    -13.339291    -0.281199    0.298501    0.304014    
-2.918609    81.093964    97.612617    0.303462    -2.405786    -177.337692    -1.871479    -14.106295    0.872464    -0.007222    6.789237    1.104508    1.557122    5.438289    -5.005232    9.915440    3.843138    -4.280131    0.890617    18.279011    -2.740298    -43.931492    47.133289    -39.830936    -2.725659    -4.568284    -17.160643    17.935692    -4.359407    3.932648    6.729248    19.696438    -3.772798    37.760593    47.353886    41.978783    0.781650    -6.204609    17.347839    -14.574613    -5.724936    -4.701371    3.283840    -2.197188    -0.293553    -3.151980    7.668906    1.445684    0.256800    -7.490889    -7.644777    -0.225519    0.647048    0.249691    -4.253499    -0.359451    3.566064    3.616336    5.537697    5.460854    -1.253917    -6.696122    -13.319431    -0.283667    0.302869    0.306681    
-2.904108    81.093620    97.610550    0.300883    -2.406151    -177.339523    -1.872761    -14.103193    0.869828    -0.005821    6.792645    1.101881    1.559075    5.445683    -4.994475    9.894478    3.866162    -4.273296    0.892108    18.279114    -2.744222    -43.924747    47.130234    -39.835205    -2.728175    -4.586673    -17.159670    17.929487    -4.379265    3.926990    6.731352    19.697113    -3.772827    37.749054    47.355343    41.987694    0.779304    -6.206467    17.350735    -14.582303    -5.726051    -4.702047    3.292361    -2.195767    -0.290048    -3.151954    7.667882    1.443743    0.251806    -7.489274    -7.644998    -0.184334    0.774216    0.204045    -4.239532    -0.369043    3.548083    3.604447    5.556534    5.460662    -1.256805    -6.703835    -13.300182    -0.286204    0.307394    0.309421    
-2.889658    81.093262    97.608414    0.298267    -2.406274    -177.341537    -1.874029    -14.099972    0.867233    -0.004330    6.795828    1.099289    1.561168    5.453389    -4.983936    9.873869    3.888601    -4.266590    0.893504    18.278875    -2.748019    -43.919102    47.127495    -39.838554    -2.730465    -4.605202    -17.158802    17.924603    -4.399147    3.921578    6.733194    19.697540    -3.772793    37.739025    47.356518    41.995449    0.777132    -6.208173    17.353386    -14.589917    -5.727083    -4.702504    3.300843    -2.193856    -0.286950    -3.152097    7.666584    1.442430    0.246587    -7.487905    -7.645213    -0.145182    0.890549    0.160674    -4.225801    -0.378049    3.530370    3.592899    5.574761    5.460662    -1.256149    -6.711539    -13.280721    -0.288558    0.310909    0.311966    
-2.875241    81.092896    97.606201    0.295593    -2.406047    -177.343857    -1.875322    -14.096545    0.864678    -0.002587    6.798761    1.096769    1.563418    5.461045    -4.973647    9.853516    3.911058    -4.260118    0.894601    18.278244    -2.751746    -43.914894    47.124809    -39.840569    -2.732638    -4.623658    -17.158184    17.921648    -4.418821    3.916574    6.734682    19.697847    -3.772691    37.730545    47.357239    42.002064    0.775169    -6.209753    17.355789    -14.597249    -5.728007    -4.702878    3.309181    -2.191387    -0.284078    -3.152166    7.665163    1.441866    0.240873    -7.486988    -7.645628    -0.108860    0.993251    0.120455    -4.212309    -0.386323    3.512837    3.581632    5.592235    5.460811    -1.259298    -6.718189    -13.261719    -0.291081    0.314727    0.314691    
-2.860915    81.092522    97.603928    0.292704    -2.405652    -177.346466    -1.876796    -14.093181    0.862183    -0.000540    6.801428    1.094263    1.565602    5.468872    -4.963691    9.833900    3.933086    -4.253891    0.895176    18.277086    -2.755316    -43.912273    47.122543    -39.841003    -2.734328    -4.642090    -17.157825    17.920506    -4.438237    3.912180    6.735743    19.697796    -3.772495    37.724155    47.357635    42.007046    0.773455    -6.211059    17.357725    -14.604211    -5.728764    -4.703070    3.317244    -2.188459    -0.281874    -3.152445    7.663400    1.442231    0.235013    -7.486387    -7.645937    -0.075768    1.079752    0.083825    -4.199448    -0.393929    3.495820    3.570989    5.608847    5.461697    -1.261560    -6.724414    -13.243540    -0.293630    0.318207    0.317445    
-2.846741    81.092140    97.601601    0.289890    -2.405119    -177.349457    -1.878131    -14.090025    0.859832    0.001742    6.803822    1.091856    1.567857    5.476393    -4.954180    9.815018    3.955153    -4.248031    0.895246    18.275700    -2.758523    -43.910690    47.120564    -39.840515    -2.735834    -4.660213    -17.157738    17.921280    -4.457123    3.908549    6.736392    19.697493    -3.772080    37.720036    47.357376    42.010189    0.772284    -6.212011    17.359358    -14.610622    -5.729259    -4.703288    3.325217    -2.185163    -0.279816    -3.152691    7.661525    1.443274    0.228846    -7.486206    -7.646348    -0.046071    1.149390    0.050964    -4.186948    -0.400831    3.479575    3.561004    5.624262    5.462948    -1.266482    -6.729611    -13.226404    -0.296327    0.321880    0.320360    
